%TF.GenerationSoftware,KiCad,Pcbnew,9.0.7*%
%TF.CreationDate,2026-02-01T20:41:00-05:00*%
%TF.ProjectId,555timerCES,35353574-696d-4657-9243-45532e6b6963,rev?*%
%TF.SameCoordinates,Original*%
%TF.FileFunction,Profile,NP*%
%FSLAX46Y46*%
G04 Gerber Fmt 4.6, Leading zero omitted, Abs format (unit mm)*
G04 Created by KiCad (PCBNEW 9.0.7) date 2026-02-01 20:41:00*
%MOMM*%
%LPD*%
G01*
G04 APERTURE LIST*
%TA.AperFunction,Profile*%
%ADD10C,0.105833*%
%TD*%
G04 APERTURE END LIST*
D10*
X143752549Y-69575349D02*
X144603369Y-69628681D01*
X145441854Y-69718698D01*
X146265243Y-69843539D01*
X147070770Y-70001342D01*
X147855670Y-70190248D01*
X148617181Y-70408395D01*
X149352537Y-70653922D01*
X150059424Y-70925013D01*
X150737333Y-71220027D01*
X151386213Y-71537370D01*
X152006009Y-71875446D01*
X152596669Y-72232662D01*
X153158140Y-72607421D01*
X153690370Y-72998131D01*
X154193305Y-73403194D01*
X154666892Y-73821018D01*
X155111079Y-74250007D01*
X155525812Y-74688566D01*
X155911039Y-75135101D01*
X156266707Y-75588017D01*
X156592763Y-76045719D01*
X156889154Y-76506612D01*
X157155827Y-76969101D01*
X157393073Y-77431866D01*
X157602567Y-77894682D01*
X157786328Y-78357604D01*
X157946376Y-78820683D01*
X158084733Y-79283975D01*
X158203418Y-79747531D01*
X158304452Y-80211407D01*
X158389855Y-80675653D01*
X158461647Y-81140326D01*
X158521849Y-81605477D01*
X158615562Y-82537428D01*
X158752800Y-84409424D01*
X158825954Y-85348402D01*
X158909317Y-86279719D01*
X159002887Y-87192318D01*
X159106665Y-88075143D01*
X159220651Y-88917138D01*
X159344845Y-89707244D01*
X159479247Y-90434406D01*
X159623857Y-91087568D01*
X159699981Y-91383357D01*
X159778603Y-91658996D01*
X159859671Y-91915602D01*
X159943131Y-92154290D01*
X160028930Y-92376177D01*
X160117015Y-92582380D01*
X160207334Y-92774015D01*
X160299832Y-92952200D01*
X160394457Y-93118049D01*
X160491155Y-93272681D01*
X160589874Y-93417211D01*
X160690560Y-93552757D01*
X160793161Y-93680434D01*
X160897623Y-93801359D01*
X161003893Y-93916649D01*
X161111918Y-94027420D01*
X161221599Y-94134648D01*
X161332662Y-94238737D01*
X161444788Y-94339956D01*
X161557658Y-94438570D01*
X161784354Y-94629044D01*
X162010200Y-94812287D01*
X162449133Y-95165588D01*
X162657117Y-95339900D01*
X162757122Y-95427401D01*
X162854045Y-95515488D01*
X162947563Y-95604408D01*
X163037360Y-95694337D01*
X163123116Y-95785437D01*
X163204512Y-95877865D01*
X163281230Y-95971781D01*
X163352949Y-96067346D01*
X163419353Y-96164718D01*
X163480120Y-96264057D01*
X163534934Y-96365523D01*
X163583473Y-96469274D01*
X163625421Y-96575472D01*
X163660457Y-96684275D01*
X163688262Y-96795842D01*
X163708519Y-96910334D01*
X163720907Y-97027909D01*
X163725108Y-97148728D01*
X163720803Y-97272781D01*
X163707672Y-97399386D01*
X163685396Y-97527692D01*
X163653658Y-97656849D01*
X163612136Y-97786005D01*
X163560513Y-97914310D01*
X163498470Y-98040914D01*
X163463441Y-98103312D01*
X163425687Y-98164966D01*
X163385168Y-98225769D01*
X163341846Y-98285616D01*
X163295678Y-98344398D01*
X163246627Y-98402012D01*
X163194651Y-98458349D01*
X163139711Y-98513304D01*
X163081768Y-98566770D01*
X163020780Y-98618642D01*
X162956709Y-98668812D01*
X162889515Y-98717175D01*
X162819157Y-98763623D01*
X162745596Y-98808052D01*
X162668792Y-98850354D01*
X162588705Y-98890423D01*
X162505295Y-98928153D01*
X162418522Y-98963437D01*
X162235057Y-99026627D01*
X162039631Y-99081044D01*
X161833891Y-99128124D01*
X161619485Y-99169303D01*
X161171269Y-99239696D01*
X160708167Y-99303709D01*
X160243363Y-99372825D01*
X160014442Y-99412886D01*
X159790041Y-99458528D01*
X159571805Y-99511189D01*
X159361385Y-99572303D01*
X159160427Y-99643305D01*
X158970579Y-99725632D01*
X158792839Y-99820579D01*
X158625593Y-99928888D01*
X158466578Y-100051159D01*
X158313527Y-100187996D01*
X158164174Y-100339999D01*
X158016256Y-100507771D01*
X157867506Y-100691914D01*
X157715659Y-100893030D01*
X157393613Y-101348588D01*
X157031996Y-101879260D01*
X156612685Y-102489861D01*
X156117558Y-103185209D01*
X155531186Y-103964193D01*
X154848906Y-104802033D01*
X154471182Y-105233430D01*
X154068741Y-105668030D01*
X153641334Y-106101996D01*
X153188716Y-106531489D01*
X152710638Y-106952674D01*
X152206854Y-107361712D01*
X151677117Y-107754768D01*
X151121180Y-108128003D01*
X150538796Y-108477581D01*
X149929718Y-108799664D01*
X149293699Y-109090416D01*
X148630491Y-109346000D01*
X147940682Y-109563715D01*
X147228175Y-109745414D01*
X146497700Y-109894086D01*
X145753986Y-110012721D01*
X145001762Y-110104311D01*
X144245757Y-110171845D01*
X143490698Y-110218315D01*
X142741317Y-110246709D01*
X141278499Y-110261235D01*
X139895133Y-110239348D01*
X137518086Y-110182023D01*
X137031282Y-110181804D01*
X136589556Y-110190336D01*
X136189740Y-110207531D01*
X135828666Y-110233298D01*
X135661668Y-110249368D01*
X135503168Y-110267549D01*
X135352771Y-110287828D01*
X135210079Y-110310195D01*
X135074698Y-110334638D01*
X134946231Y-110361147D01*
X134824282Y-110389710D01*
X134708457Y-110420316D01*
X134598358Y-110452954D01*
X134493589Y-110487613D01*
X134393756Y-110524282D01*
X134298462Y-110562950D01*
X134207311Y-110603605D01*
X134119907Y-110646237D01*
X134035854Y-110690834D01*
X133954757Y-110737385D01*
X133799845Y-110836305D01*
X133652004Y-110942909D01*
X133508067Y-111057108D01*
X133364866Y-111178812D01*
X133071196Y-111445111D01*
X132761595Y-111744776D01*
X132429847Y-112081515D01*
X132069734Y-112459033D01*
X130221315Y-114451053D01*
X128988746Y-115760384D01*
X128311690Y-116461308D01*
X127609252Y-117170305D01*
X126892779Y-117870298D01*
X126173623Y-118544212D01*
X125463130Y-119174971D01*
X125114680Y-119468831D01*
X124772651Y-119745499D01*
X124442008Y-120002041D01*
X124126266Y-120238716D01*
X123536489Y-120663098D01*
X122502755Y-121390384D01*
X122270324Y-121562398D01*
X122046796Y-121735803D01*
X121831418Y-121913257D01*
X121623441Y-122097417D01*
X121422115Y-122290940D01*
X121226690Y-122496483D01*
X121036415Y-122716703D01*
X120850541Y-122954258D01*
X120676913Y-123195692D01*
X120522262Y-123426788D01*
X120384169Y-123649057D01*
X120260214Y-123864014D01*
X120147979Y-124073171D01*
X120045043Y-124278041D01*
X119857391Y-124680975D01*
X119677902Y-125084922D01*
X119487221Y-125501986D01*
X119381634Y-125719221D01*
X119265991Y-125944275D01*
X119137871Y-126178661D01*
X118994856Y-126423893D01*
X118836267Y-126668050D01*
X118663997Y-126897977D01*
X118479480Y-127113339D01*
X118284151Y-127313799D01*
X118079445Y-127499024D01*
X117866796Y-127668676D01*
X117647639Y-127822421D01*
X117423407Y-127959922D01*
X117195537Y-128080845D01*
X116965461Y-128184854D01*
X116734616Y-128271613D01*
X116504435Y-128340786D01*
X116276352Y-128392039D01*
X116051803Y-128425035D01*
X115832222Y-128439439D01*
X115619044Y-128434916D01*
X115515272Y-128425479D01*
X115413446Y-128411348D01*
X115313550Y-128392646D01*
X115215570Y-128369496D01*
X115119491Y-128342018D01*
X115025299Y-128310336D01*
X114932978Y-128274572D01*
X114842514Y-128234848D01*
X114753892Y-128191286D01*
X114667097Y-128144008D01*
X114498931Y-128038796D01*
X114337898Y-127920188D01*
X114183880Y-127789164D01*
X114036758Y-127646700D01*
X113896415Y-127493774D01*
X113762734Y-127331366D01*
X113635595Y-127160452D01*
X113514882Y-126982010D01*
X113400476Y-126797019D01*
X113292260Y-126606457D01*
X113190115Y-126411301D01*
X113093788Y-126212543D01*
X113002477Y-126011219D01*
X112831153Y-125605070D01*
X112507426Y-124808101D01*
X112424962Y-124618164D01*
X112340010Y-124434046D01*
X112251630Y-124256793D01*
X112158885Y-124087455D01*
X112060837Y-123927078D01*
X111956546Y-123776711D01*
X111845075Y-123637401D01*
X111786354Y-123572220D01*
X111725486Y-123510196D01*
X111597106Y-123395800D01*
X111460318Y-123293531D01*
X111315772Y-123202363D01*
X111164113Y-123121267D01*
X111005991Y-123049218D01*
X110842053Y-122985188D01*
X110672947Y-122928149D01*
X110499320Y-122877074D01*
X110321821Y-122830937D01*
X110141096Y-122788709D01*
X109772563Y-122711875D01*
X109398904Y-122638354D01*
X109025300Y-122559928D01*
X108655107Y-122469244D01*
X108284356Y-122362401D01*
X107907238Y-122236361D01*
X107517946Y-122088084D01*
X107110673Y-121914532D01*
X106679611Y-121712666D01*
X106218954Y-121479448D01*
X105722894Y-121211838D01*
X105187525Y-120907519D01*
X104616530Y-120567049D01*
X104015482Y-120191704D01*
X103389958Y-119782758D01*
X102745531Y-119341487D01*
X102087778Y-118869167D01*
X101422272Y-118367072D01*
X100754588Y-117836478D01*
X100089944Y-117279020D01*
X99432110Y-116697747D01*
X98784486Y-116096060D01*
X98150474Y-115477361D01*
X97533475Y-114845050D01*
X96936890Y-114202530D01*
X96364120Y-113553202D01*
X95818568Y-112900467D01*
X95303001Y-112246104D01*
X94817634Y-111585364D01*
X94586143Y-111250609D01*
X94362042Y-110911867D01*
X94145278Y-110568341D01*
X93935798Y-110219232D01*
X93733549Y-109863743D01*
X93538477Y-109501077D01*
X93350529Y-109130435D01*
X93169651Y-108751021D01*
X92995792Y-108362037D01*
X92828896Y-107962684D01*
X92668911Y-107552166D01*
X92515784Y-107129685D01*
X92230530Y-106247346D01*
X91975901Y-105317799D01*
X91755298Y-104344869D01*
X91572124Y-103332385D01*
X91429782Y-102284175D01*
X91374985Y-101747868D01*
X91331673Y-101204065D01*
X91300270Y-100653245D01*
X91281201Y-100095885D01*
X91274892Y-99532465D01*
X91281769Y-98963462D01*
X91302122Y-98389488D01*
X91335713Y-97811688D01*
X91382170Y-97231337D01*
X91441121Y-96649711D01*
X91512194Y-96068085D01*
X91595015Y-95487736D01*
X91794419Y-94335970D01*
X92036356Y-93204618D01*
X92317848Y-92103886D01*
X92635919Y-91043980D01*
X92807741Y-90532526D01*
X92987592Y-90035105D01*
X93175409Y-89552667D01*
X93372369Y-89084852D01*
X93579962Y-88630967D01*
X93799676Y-88190322D01*
X94033001Y-87762225D01*
X94281424Y-87345984D01*
X94546434Y-86940908D01*
X94829520Y-86546307D01*
X95132172Y-86161488D01*
X95455877Y-85785761D01*
X95802125Y-85418433D01*
X96172404Y-85058814D01*
X96568202Y-84706212D01*
X96991010Y-84359936D01*
X97442314Y-84019295D01*
X97923605Y-83683597D01*
X98435882Y-83352746D01*
X98978195Y-83029019D01*
X99549110Y-82715289D01*
X100147191Y-82414425D01*
X100771003Y-82129299D01*
X101419111Y-81862782D01*
X102090080Y-81617744D01*
X102782474Y-81397055D01*
X103494860Y-81203587D01*
X104225800Y-81040211D01*
X104973861Y-80909797D01*
X105737606Y-80815217D01*
X106515602Y-80759340D01*
X107306412Y-80745038D01*
X108108602Y-80775181D01*
X108920736Y-80852640D01*
X109741005Y-80978763D01*
X110566109Y-81148800D01*
X111392380Y-81356478D01*
X112216151Y-81595522D01*
X113033752Y-81859661D01*
X113841517Y-82142620D01*
X115412865Y-82739906D01*
X118276128Y-83884296D01*
X118912332Y-84123345D01*
X119509355Y-84331028D01*
X120063529Y-84501071D01*
X120571186Y-84627201D01*
X120806617Y-84671991D01*
X121030198Y-84704366D01*
X121242627Y-84724461D01*
X121444603Y-84732407D01*
X121636822Y-84728338D01*
X121819983Y-84712387D01*
X121994783Y-84684685D01*
X122161921Y-84645368D01*
X122322094Y-84594566D01*
X122475999Y-84532414D01*
X122624336Y-84459043D01*
X122767801Y-84374588D01*
X122907092Y-84279180D01*
X123042908Y-84172953D01*
X123306902Y-83928573D01*
X123565367Y-83642511D01*
X123823885Y-83315830D01*
X124088038Y-82949593D01*
X124363409Y-82544864D01*
X124970134Y-81624181D01*
X125688719Y-80562287D01*
X126554392Y-79373648D01*
X127042200Y-78743392D01*
X127564670Y-78096550D01*
X128120315Y-77438650D01*
X128707646Y-76775221D01*
X129325175Y-76111793D01*
X129971414Y-75453893D01*
X130644873Y-74807052D01*
X131344066Y-74176797D01*
X132067503Y-73568658D01*
X132813697Y-72988163D01*
X133581158Y-72440842D01*
X134368399Y-71932222D01*
X135173931Y-71467834D01*
X135996266Y-71053205D01*
X136833697Y-70692638D01*
X137683672Y-70385503D01*
X138543427Y-70129940D01*
X139410199Y-69924087D01*
X140281222Y-69766083D01*
X141153733Y-69654069D01*
X142024967Y-69586182D01*
X142892161Y-69560562D01*
X143752549Y-69575349D01*
M02*
